<mxfile host="app.diagrams.net" agent="Mozilla/5.0 (Windows NT 10.0; Win64; x64) AppleWebKit/537.36 (KHTML, like Gecko) Chrome/139.0.0.0 Safari/537.36" version="28.0.7">
  <diagram name="Page-1" id="aCCHrLeqorxIM4mC055I">
    <mxGraphModel dx="992" dy="681" grid="1" gridSize="10" guides="1" tooltips="1" connect="1" arrows="1" fold="1" page="1" pageScale="1" pageWidth="1200" pageHeight="1000" math="0" shadow="0">
      <root>
        <mxCell id="0" />
        <mxCell id="1" parent="0" />
        <mxCell id="S1Yml9Vjgii57evw22sl-1" value="" style="html=1;dropTarget=0;whiteSpace=wrap;" vertex="1" parent="1">
          <mxGeometry x="170" y="410" width="292.5" height="70" as="geometry" />
        </mxCell>
        <mxCell id="S1Yml9Vjgii57evw22sl-2" value="" style="shape=module;jettyWidth=8;jettyHeight=4;" vertex="1" parent="S1Yml9Vjgii57evw22sl-1">
          <mxGeometry x="1" width="20" height="20" relative="1" as="geometry">
            <mxPoint x="-27" y="7" as="offset" />
          </mxGeometry>
        </mxCell>
        <mxCell id="S1Yml9Vjgii57evw22sl-3" value="" style="html=1;dropTarget=0;whiteSpace=wrap;" vertex="1" parent="1">
          <mxGeometry x="580" y="280" width="410" height="390" as="geometry" />
        </mxCell>
        <mxCell id="S1Yml9Vjgii57evw22sl-4" value="" style="shape=module;jettyWidth=8;jettyHeight=4;" vertex="1" parent="S1Yml9Vjgii57evw22sl-3">
          <mxGeometry x="1" width="20" height="20" relative="1" as="geometry">
            <mxPoint x="-27" y="7" as="offset" />
          </mxGeometry>
        </mxCell>
        <mxCell id="S1Yml9Vjgii57evw22sl-5" value="" style="ellipse;whiteSpace=wrap;html=1;align=center;aspect=fixed;fillColor=none;strokeColor=none;resizable=0;perimeter=centerPerimeter;rotatable=0;allowArrows=0;points=[];outlineConnect=1;" vertex="1" parent="1">
          <mxGeometry x="557.5" y="460" width="10" height="10" as="geometry" />
        </mxCell>
        <mxCell id="S1Yml9Vjgii57evw22sl-10" value="" style="rounded=0;whiteSpace=wrap;html=1;" vertex="1" parent="1">
          <mxGeometry x="452.5" y="430" width="20" height="20" as="geometry" />
        </mxCell>
        <mxCell id="S1Yml9Vjgii57evw22sl-11" value="" style="rounded=0;orthogonalLoop=1;jettySize=auto;html=1;endArrow=oval;endFill=0;sketch=0;sourcePerimeterSpacing=0;targetPerimeterSpacing=0;endSize=10;" edge="1" parent="1">
          <mxGeometry relative="1" as="geometry">
            <mxPoint x="472.5" y="440" as="sourcePoint" />
            <mxPoint x="512.5" y="440" as="targetPoint" />
          </mxGeometry>
        </mxCell>
        <mxCell id="S1Yml9Vjgii57evw22sl-13" value="" style="ellipse;whiteSpace=wrap;html=1;align=center;aspect=fixed;fillColor=none;strokeColor=none;resizable=0;perimeter=centerPerimeter;rotatable=0;allowArrows=0;points=[];outlineConnect=1;" vertex="1" parent="1">
          <mxGeometry x="512.5" y="435" width="10" height="10" as="geometry" />
        </mxCell>
        <mxCell id="S1Yml9Vjgii57evw22sl-14" value="" style="rounded=0;whiteSpace=wrap;html=1;" vertex="1" parent="1">
          <mxGeometry x="572.5" y="430" width="20" height="20" as="geometry" />
        </mxCell>
        <mxCell id="S1Yml9Vjgii57evw22sl-15" value="" style="rounded=0;orthogonalLoop=1;jettySize=auto;html=1;endArrow=halfCircle;endFill=0;endSize=6;strokeWidth=1;sketch=0;fontSize=12;curved=1;exitX=0;exitY=0.5;exitDx=0;exitDy=0;" edge="1" parent="1" source="S1Yml9Vjgii57evw22sl-14" target="S1Yml9Vjgii57evw22sl-16">
          <mxGeometry relative="1" as="geometry">
            <mxPoint x="707.5" y="475" as="sourcePoint" />
          </mxGeometry>
        </mxCell>
        <mxCell id="S1Yml9Vjgii57evw22sl-16" value="" style="ellipse;whiteSpace=wrap;html=1;align=center;aspect=fixed;fillColor=none;strokeColor=none;resizable=0;perimeter=centerPerimeter;rotatable=0;allowArrows=0;points=[];outlineConnect=1;" vertex="1" parent="1">
          <mxGeometry x="512.5" y="435" width="10" height="10" as="geometry" />
        </mxCell>
        <mxCell id="S1Yml9Vjgii57evw22sl-23" value="" style="ellipse;whiteSpace=wrap;html=1;align=center;aspect=fixed;fillColor=none;strokeColor=none;resizable=0;perimeter=centerPerimeter;rotatable=0;allowArrows=0;points=[];outlineConnect=1;" vertex="1" parent="1">
          <mxGeometry x="792.5" y="530" width="10" height="10" as="geometry" />
        </mxCell>
        <mxCell id="S1Yml9Vjgii57evw22sl-24" value="&amp;lt;&amp;lt;Component&amp;gt;&amp;gt;&lt;div&gt;KWIC-Client&lt;/div&gt;" style="text;align=center;fontStyle=1;verticalAlign=middle;spacingLeft=3;spacingRight=3;strokeColor=none;rotatable=0;points=[[0,0.5],[1,0.5]];portConstraint=eastwest;html=1;" vertex="1" parent="1">
          <mxGeometry x="745" y="290" width="80" height="26" as="geometry" />
        </mxCell>
        <mxCell id="S1Yml9Vjgii57evw22sl-25" value="&amp;lt;&amp;lt;Component&amp;gt;&amp;gt;&lt;div&gt;KWIC-Server&lt;/div&gt;" style="text;align=center;fontStyle=1;verticalAlign=middle;spacingLeft=3;spacingRight=3;strokeColor=none;rotatable=0;points=[[0,0.5],[1,0.5]];portConstraint=eastwest;html=1;" vertex="1" parent="1">
          <mxGeometry x="270" y="434" width="80" height="26" as="geometry" />
        </mxCell>
        <mxCell id="S1Yml9Vjgii57evw22sl-32" value="Port 9090" style="text;html=1;align=center;verticalAlign=middle;whiteSpace=wrap;rounded=0;" vertex="1" parent="1">
          <mxGeometry x="462.5" y="400" width="37.5" height="20" as="geometry" />
        </mxCell>
        <mxCell id="S1Yml9Vjgii57evw22sl-34" value="ServerSocket" style="text;html=1;align=center;verticalAlign=middle;whiteSpace=wrap;rounded=0;fontSize=9;" vertex="1" parent="1">
          <mxGeometry x="482.5" y="455" width="30" height="10" as="geometry" />
        </mxCell>
        <mxCell id="S1Yml9Vjgii57evw22sl-37" value="Socket" style="text;html=1;align=center;verticalAlign=middle;whiteSpace=wrap;rounded=0;fontSize=9;" vertex="1" parent="1">
          <mxGeometry x="542.5" y="410" width="30" height="10" as="geometry" />
        </mxCell>
        <mxCell id="S1Yml9Vjgii57evw22sl-38" value="KWICClient" style="swimlane;fontStyle=1;align=center;verticalAlign=top;childLayout=stackLayout;horizontal=1;startSize=26;horizontalStack=0;resizeParent=1;resizeParentMax=0;resizeLast=0;collapsible=1;marginBottom=0;whiteSpace=wrap;html=1;" vertex="1" parent="1">
          <mxGeometry x="650" y="341" width="270" height="94" as="geometry">
            <mxRectangle x="650" y="360" width="100" height="30" as="alternateBounds" />
          </mxGeometry>
        </mxCell>
        <mxCell id="S1Yml9Vjgii57evw22sl-40" value="" style="line;strokeWidth=1;fillColor=none;align=left;verticalAlign=middle;spacingTop=-1;spacingLeft=3;spacingRight=3;rotatable=0;labelPosition=right;points=[];portConstraint=eastwest;strokeColor=inherit;" vertex="1" parent="S1Yml9Vjgii57evw22sl-38">
          <mxGeometry y="26" width="270" height="8" as="geometry" />
        </mxCell>
        <mxCell id="S1Yml9Vjgii57evw22sl-41" value="&lt;div&gt;+KWICClient(port : int, ip : String) : void&lt;/div&gt;&lt;u&gt;+main(args : String[]) : void&lt;/u&gt;&lt;div&gt;+run() : void&lt;/div&gt;" style="text;strokeColor=none;fillColor=none;align=left;verticalAlign=top;spacingLeft=4;spacingRight=4;overflow=hidden;rotatable=0;points=[[0,0.5],[1,0.5]];portConstraint=eastwest;whiteSpace=wrap;html=1;" vertex="1" parent="S1Yml9Vjgii57evw22sl-38">
          <mxGeometry y="34" width="270" height="60" as="geometry" />
        </mxCell>
        <mxCell id="S1Yml9Vjgii57evw22sl-44" value="ClientHandler" style="swimlane;fontStyle=1;align=center;verticalAlign=top;childLayout=stackLayout;horizontal=1;startSize=26;horizontalStack=0;resizeParent=1;resizeParentMax=0;resizeLast=0;collapsible=1;marginBottom=0;whiteSpace=wrap;html=1;" vertex="1" parent="1">
          <mxGeometry x="650" y="480" width="270" height="140" as="geometry">
            <mxRectangle x="650" y="360" width="100" height="30" as="alternateBounds" />
          </mxGeometry>
        </mxCell>
        <mxCell id="S1Yml9Vjgii57evw22sl-45" value="-socket : Socket" style="text;strokeColor=none;fillColor=none;align=left;verticalAlign=top;spacingLeft=4;spacingRight=4;overflow=hidden;rotatable=0;points=[[0,0.5],[1,0.5]];portConstraint=eastwest;whiteSpace=wrap;html=1;" vertex="1" parent="S1Yml9Vjgii57evw22sl-44">
          <mxGeometry y="26" width="270" height="26" as="geometry" />
        </mxCell>
        <mxCell id="S1Yml9Vjgii57evw22sl-46" value="" style="line;strokeWidth=1;fillColor=none;align=left;verticalAlign=middle;spacingTop=-1;spacingLeft=3;spacingRight=3;rotatable=0;labelPosition=right;points=[];portConstraint=eastwest;strokeColor=inherit;" vertex="1" parent="S1Yml9Vjgii57evw22sl-44">
          <mxGeometry y="52" width="270" height="8" as="geometry" />
        </mxCell>
        <mxCell id="S1Yml9Vjgii57evw22sl-47" value="&lt;div&gt;+ClientHanlder(socket : Socket) : void&lt;/div&gt;+sendLines(lines : List&amp;lt;String&amp;gt;) : void&lt;div&gt;+receiveMessage() : List&amp;lt;String&amp;gt;&lt;/div&gt;&lt;div&gt;+searchKeyword(keyword : String) : void&lt;/div&gt;&lt;div&gt;&lt;br&gt;&lt;/div&gt;" style="text;strokeColor=none;fillColor=none;align=left;verticalAlign=top;spacingLeft=4;spacingRight=4;overflow=hidden;rotatable=0;points=[[0,0.5],[1,0.5]];portConstraint=eastwest;whiteSpace=wrap;html=1;" vertex="1" parent="S1Yml9Vjgii57evw22sl-44">
          <mxGeometry y="60" width="270" height="80" as="geometry" />
        </mxCell>
      </root>
    </mxGraphModel>
  </diagram>
</mxfile>
